<?xml version="1.0" encoding="UTF-8"?>
<svg id="Layer_1" xmlns="http://www.w3.org/2000/svg" version="1.1" viewBox="0 0 200 200">
  <!-- Generator: Adobe Illustrator 29.6.0, SVG Export Plug-In . SVG Version: 2.1.1 Build 207)  -->
  <path d="M185,15v170H15V15h170M200,0H0v200h200V0h0Z"/>
  <path d="M90.1,60.9h-4.8c-4.4,0-12.6.1-18.3,2.2-3,2.2-9,10.5-12.4,15.4-.4.7-.8,1.1-1.4,1l-3-1.1c-.5-.1-.7-.8-.5-1.2,1.5-5.7,6-23.8,6.6-26.5.4-1.8,1.1-2.3,2-2.3s1.4.5,2.6,2c1.5,1.9,4.1,3.1,9,3.4,7.2.4,13,.8,27.2.8h7.9c14.9,0,20.8-.5,26.5-.8,3-.1,8.3-1.8,10-3.4,1.4-1.4,2.2-2,3.1-2s1.4.5,1.6,2.2l4.1,27.2c.1.5-.1,1.1-.5,1.2l-2.9,1.1c-.5.1-.8-.3-1.4-1.2-3-4.9-8.3-12-11.7-15.3-3.4-2-15.6-2.6-18.7-2.6h-4.5v37.5c0,1.9,0,40.1.1,42.2.3,3.4,1.4,5.5,4.6,5.5h6.1c1.2,0,1.4.4,1.4,1.4v3.1c0,.7-.1,1.1-1.4,1.1s-5.7-.4-20.9-.4-20.2.4-22.1.4-1.2-.5-1.2-1.6v-2.6c0-1,.1-1.4,1-1.4h7c2.7,0,4.4-1.6,4.6-4.1.3-2.9.3-44.8.3-47.4v-33.7Z"/>
</svg>